<?xml version="1.0" encoding="utf-8"?>
<!-- Generator: Adobe Illustrator 27.0.1, SVG Export Plug-In . SVG Version: 6.00 Build 0)  -->
<svg version="1.1" id="Layer_1" xmlns="http://www.w3.org/2000/svg" xmlns:xlink="http://www.w3.org/1999/xlink" x="0px" y="0px"
	 viewBox="0 0 197.46 235.62" style="enable-background:new 0 0 197.46 235.62;" xml:space="preserve">
<style type="text/css">
	.st0{fill:url(#SVGID_1_);}
	.st1{fill:url(#SVGID_00000161596116947643905890000005236604237853012415_);}
</style>
<g>
	<linearGradient id="SVGID_1_" gradientUnits="userSpaceOnUse" x1="115.2931" y1="191.8804" x2="24.4958" y2="101.0831">
		<stop  offset="0" style="stop-color:#00B4CE"/>
		<stop  offset="0.4628" style="stop-color:#0092AC"/>
		<stop  offset="0.5283" style="stop-color:#0086A0"/>
		<stop  offset="0.7397" style="stop-color:#00657F"/>
		<stop  offset="0.8447" style="stop-color:#005974"/>
	</linearGradient>
	<path class="st0" d="M119.44,176.68v-7.4v-20.74v-43.23H97.53l-27.61,34.27l-27.58-34.27H20.27v63.97h0.09v7.4
		c0,19.37,19.82,32.53,49.54,32.53C99.48,209.21,119.44,196.33,119.44,176.68z M97.11,175.95c0,9.6-11.22,16.08-27.21,16.08
		c-15.99,0-27.29-6-27.29-15.78l0-10.9v-16.81v-11.7l12.31,11.7l13.55,12.88h2.91l13.54-12.88l12.2-11.61v11.61v16.81v3.93h0.01
		V175.95z"/>
	
		<linearGradient id="SVGID_00000142176498684530599650000012565412749505610658_" gradientUnits="userSpaceOnUse" x1="20.3549" y1="117.8097" x2="177.1941" y2="117.8097">
		<stop  offset="0" style="stop-color:#00B4CE"/>
		<stop  offset="0.4628" style="stop-color:#0092AC"/>
		<stop  offset="0.5283" style="stop-color:#0086A0"/>
		<stop  offset="0.7397" style="stop-color:#00657F"/>
		<stop  offset="0.8447" style="stop-color:#005974"/>
	</linearGradient>
	<path style="fill:url(#SVGID_00000142176498684530599650000012565412749505610658_);" d="M176.93,114.51
		c-0.31-34.49-17.16-63.54-45.81-82.28c-13.55-8.93-28.84-15.29-44.95-17.66c-9.22-1.07-24.23-1.95-29.41,7.75
		c-2.02,4.27-0.61,9.01,1.44,12.8c1.79,3.59,4.83,6.44,6.89,9.71c1.02,1.68,1.84,3.46,2.48,5.3c-28.3,0.85-47.22,17.18-47.22,41.75
		v9.51h22.33v-8.57c0-12.02,10.66-20.23,26.01-20.64v21c-1.52,0.51-2.61,1.92-2.61,3.61v17.12c0,2.11,1.71,3.82,3.82,3.82h0
		c2.11,0,3.82-1.71,3.82-3.82V96.78c0-1.73-1.15-3.17-2.72-3.64V72.17c15.4,0.35,26.19,7.99,26.19,20.26l0,8.96h22.25v-9.51
		c0-24.89-19.82-41.79-49.54-41.79c-0.35,0-0.7,0.01-1.05,0.02c-0.72-3.13-1.95-6.13-3.71-8.81c-4.15-5.76-10.22-16.09-1.6-20.43
		c6.51-3.03,14.69-2.14,21.73-0.87c22.32,4.58,43.4,16.72,58.9,33.24c23.12,24.59,26.39,52.34,24.35,84.73
		c-2.07,31.35-17.04,59.69-46.69,72.93c-14,6.56-29.62,9.63-45.34,10.58c23.59,1.35,48.96-3.76,68.05-18.74
		C171.15,182.31,178.79,146.43,176.93,114.51z"/>
</g>
</svg>
